<svg xmlns="http://www.w3.org/2000/svg" xmlns:xlink="http://www.w3.org/1999/xlink" width="180" zoomAndPan="magnify" viewBox="0 0 135 135.000003" height="180" preserveAspectRatio="xMidYMid meet" version="1.0"><defs><g/><clipPath id="bd12e39925"><path d="M 3.566406 3.070312 L 131.617188 3.070312 L 131.617188 131 L 3.566406 131 Z M 3.566406 3.070312 " clip-rule="nonzero"/></clipPath><clipPath id="d3253a93d8"><path d="M 21.164062 13.402344 L 113.480469 13.402344 L 113.480469 75.191406 L 21.164062 75.191406 Z M 21.164062 13.402344 " clip-rule="nonzero"/></clipPath></defs><g clip-path="url(#bd12e39925)"><path fill="#f2b705" d="M 67.496094 3.070312 C 32.175781 3.070312 3.566406 31.679688 3.566406 67 C 3.566406 102.316406 32.175781 130.925781 67.496094 130.925781 C 102.8125 130.925781 131.421875 102.316406 131.421875 67 C 131.421875 31.679688 102.8125 3.070312 67.496094 3.070312 Z M 67.496094 3.070312 " fill-opacity="1" fill-rule="nonzero"/></g><g clip-path="url(#d3253a93d8)"><path fill="#ffffff" d="M 31.507812 75.019531 L 103.488281 75.019531 C 109.082031 75.019531 113.65625 70.441406 113.65625 64.851562 C 113.65625 62.335938 112.148438 60.15625 109.992188 59.167969 L 109.992188 64.085938 C 109.992188 67.957031 106.84375 71.105469 102.972656 71.105469 L 32.023438 71.105469 C 28.152344 71.105469 25.003906 67.957031 25.003906 64.085938 L 25.003906 59.167969 C 22.847656 60.15625 21.339844 62.335938 21.339844 64.851562 C 21.339844 70.441406 25.914062 75.019531 31.507812 75.019531 Z M 56.503906 14.761719 C 60.023438 13.875 63.707031 13.402344 67.496094 13.402344 C 71.285156 13.402344 74.96875 13.875 78.492188 14.761719 C 80.589844 15.292969 81.9375 17.292969 81.640625 19.433594 L 77.132812 52.054688 C 76.84375 54.15625 75.074219 55.699219 72.953125 55.699219 L 62.042969 55.699219 C 59.921875 55.699219 58.152344 54.15625 57.859375 52.054688 L 53.351562 19.433594 C 53.058594 17.292969 54.40625 15.292969 56.503906 14.761719 Z M 32.023438 68.308594 C 29.695312 68.308594 27.800781 66.414062 27.800781 64.085938 L 27.800781 58.605469 C 27.800781 49.550781 30.875 41.179688 36.03125 34.480469 L 42.273438 55.382812 C 42.496094 56.121094 43.273438 56.542969 44.011719 56.324219 C 44.75 56.101562 45.171875 55.324219 44.953125 54.585938 L 38.179688 31.910156 C 41.753906 27.992188 46.09375 24.789062 50.957031 22.539062 L 55.089844 52.4375 C 55.570312 55.925781 58.523438 58.496094 62.042969 58.496094 L 72.953125 58.496094 C 76.472656 58.496094 79.425781 55.925781 79.90625 52.4375 L 84.035156 22.539062 C 88.902344 24.789062 93.242188 27.992188 96.816406 31.910156 L 90.042969 54.585938 C 89.824219 55.324219 90.246094 56.101562 90.984375 56.324219 C 91.722656 56.542969 92.5 56.121094 92.722656 55.382812 L 98.964844 34.476562 C 104.121094 41.175781 107.195312 49.550781 107.195312 58.605469 L 107.195312 64.085938 C 107.195312 66.414062 105.296875 68.308594 102.972656 68.308594 Z M 32.023438 68.308594 " fill-opacity="1" fill-rule="evenodd"/></g><g fill="#ffffff" fill-opacity="1"><g transform="translate(29.284559, 106.541811)"><g><path d="M 19.125 -19.625 C 18.644531 -19.882812 18.0625 -20.128906 17.375 -20.359375 C 16.695312 -20.597656 15.800781 -20.71875 14.6875 -20.71875 C 13.226562 -20.71875 11.988281 -20.4375 10.96875 -19.875 C 9.945312 -19.320312 9.125 -18.582031 8.5 -17.65625 C 7.882812 -16.726562 7.46875 -15.707031 7.25 -14.59375 C 7.039062 -13.488281 7.039062 -12.378906 7.25 -11.265625 C 7.46875 -10.160156 7.882812 -9.144531 8.5 -8.21875 C 9.125 -7.289062 9.945312 -6.546875 10.96875 -5.984375 C 11.988281 -5.421875 13.226562 -5.140625 14.6875 -5.140625 C 15.800781 -5.140625 16.78125 -5.269531 17.625 -5.53125 C 18.476562 -5.800781 19.144531 -6.054688 19.625 -6.296875 L 20.296875 -1 C 19.515625 -0.6875 18.609375 -0.425781 17.578125 -0.21875 C 16.554688 -0.0195312 15.59375 0.078125 14.6875 0.078125 C 12.519531 0.078125 10.625 -0.285156 9 -1.015625 C 7.382812 -1.742188 6.035156 -2.726562 4.953125 -3.96875 C 3.867188 -5.207031 3.054688 -6.59375 2.515625 -8.125 C 1.984375 -9.664062 1.71875 -11.253906 1.71875 -12.890625 C 1.71875 -14.535156 1.984375 -16.125 2.515625 -17.65625 C 3.054688 -19.195312 3.867188 -20.585938 4.953125 -21.828125 C 6.035156 -23.066406 7.382812 -24.050781 9 -24.78125 C 10.625 -25.507812 12.519531 -25.875 14.6875 -25.875 C 16.539062 -25.875 18.21875 -25.539062 19.71875 -24.875 Z M 19.125 -19.625 "/></g></g></g><g fill="#ffffff" fill-opacity="1"><g transform="translate(54.72813, 106.541811)"><g><path d="M 7.96875 -13.90625 L 7.96875 0 L 2.859375 0 L 2.859375 -26.09375 L 4.21875 -26.09375 L 17.109375 -11.078125 L 17.109375 -25.515625 L 22.265625 -25.515625 L 22.265625 0.53125 L 20.90625 0.53125 Z M 7.96875 -13.90625 "/></g></g></g><g fill="#ffffff" fill-opacity="1"><g transform="translate(83.816708, 106.541811)"><g><path d="M 15.578125 0 L 10.4375 -9.75 L 7.96875 -9.75 L 7.96875 0 L 2.859375 0 L 2.859375 -25.546875 L 12.9375 -25.546875 C 14.457031 -25.546875 15.75 -25.226562 16.8125 -24.59375 C 17.875 -23.96875 18.703125 -23.148438 19.296875 -22.140625 C 19.890625 -21.128906 20.257812 -20.03125 20.40625 -18.84375 C 20.550781 -17.664062 20.460938 -16.507812 20.140625 -15.375 C 19.816406 -14.25 19.265625 -13.25 18.484375 -12.375 C 17.710938 -11.507812 16.695312 -10.898438 15.4375 -10.546875 L 21.375 0 Z M 7.96875 -14.71875 L 12.46875 -14.71875 C 13.15625 -14.71875 13.707031 -14.90625 14.125 -15.28125 C 14.550781 -15.664062 14.832031 -16.144531 14.96875 -16.71875 C 15.113281 -17.289062 15.113281 -17.863281 14.96875 -18.4375 C 14.832031 -19.007812 14.550781 -19.484375 14.125 -19.859375 C 13.707031 -20.242188 13.15625 -20.4375 12.46875 -20.4375 L 7.96875 -20.4375 Z M 7.96875 -14.71875 "/></g></g></g></svg>